<svg width="100%" height="100%" viewBox="0 0 24 24" version="1.1" xmlns="http://www.w3.org/2000/svg" xml:space="preserve" style="fill-rule:evenodd;clip-rule:evenodd;stroke-linejoin:round;stroke-miterlimit:1.41421;">
    <g transform="matrix(0.0390625,0,0,0.0390625,4.5,2)">
        <path d="M272,428L272,456C272,466.449 265.32,475.334 256,478.629L256,488C256,501.255 245.255,512 232,512L152,512C138.745,512 128,501.255 128,488L128,478.629C118.68,475.334 112,466.449 112,456L112,428C112,421.373 117.373,416 124,416L260,416C266.627,416 272,421.373 272,428ZM128,176C128,140.71 156.71,112 192,112C200.837,112 208,104.836 208,96C208,87.164 200.837,80 192,80C139.065,80 96,123.065 96,176C96,184.836 103.164,192 112,192C120.836,192 128,184.836 128,176ZM192,48C262.734,48 320,105.254 320,176C320,253.602 282.617,236.477 239.02,336L144.98,336C101.318,236.33 64,253.869 64,176C64,105.265 121.254,48 192,48M192,0C94.805,0 16,78.803 16,176C16,277.731 67.697,267.541 106.516,368.674C110.066,377.923 118.986,384 128.892,384L255.107,384C265.013,384 273.933,377.922 277.483,368.674C316.303,267.541 368,277.731 368,176C368,78.803 289.195,0 192,0Z" style="fill:rgb(140,140,140);fill-rule:nonzero;"/>
    </g>
</svg>
