<?xml version="1.0" encoding="UTF-8" standalone="no"?>

<svg
   xmlns="http://www.w3.org/2000/svg"
   width="24"
   height="24"
   viewBox="0 0 6.3499999 6.3500002"
   version="1.1"
   id="svg132">
  <defs
     id="defs126" />
  <metadata
     id="metadata129">
  </metadata>
  <g id="layer3">
    <path
       style="stroke-width:0.12626907"
       d="M 17.223826,5.8767805 17.18897,3.9511772 13.179927,3.9178363 9.1708843,3.8844953 V 2.8761164 1.8677376 h 5.4295697 5.42957 v 2.9673231 2.9673231 h -1.385671 -1.385671 z"
       id="path208"
       transform="scale(0.26458333)" />
    <path
       style="stroke-width:0.12626907"
       d="m 3.9938525,6.7290967 v -1.073287 h 5.4295699 5.4295696 v 1.073287 1.0732871 H 9.4234224 3.9938525 Z"
       id="path210"
       transform="scale(0.26458333)" />
    <path
       style="stroke-width:0.12626907"
       d="M 5.3428864,22.266656 C 5.0778593,22.172135 4.759858,22.003251 4.6362168,21.891357 4.1639473,21.463959 4.1201215,20.890895 4.1201215,15.142907 V 9.5701508 h 7.9609355 7.960936 l -0.03755,5.7345512 -0.03755,5.734552 -0.382746,0.544394 C 19.3105,21.972862 19.05855,22.171106 18.700261,22.279115 17.931428,22.510887 5.9964748,22.499755 5.3428864,22.266652 Z M 17.125836,15.945322 v -4.23143 l -5.145465,0.03298 -5.1454645,0.03298 -0.033382,4.039518 c -0.01836,2.221735 -0.00594,4.111036 0.027604,4.198447 0.047625,0.124108 1.1822763,0.158929 5.1788465,0.158929 h 5.117861 z"
       id="path212"
       transform="scale(0.26458333)" />
  </g>
</svg>
