<?xml version="1.0" encoding="UTF-8" standalone="no"?>

<svg
   xmlns="http://www.w3.org/2000/svg"
   width="24"
   height="24"
   viewBox="0 0 6.3499999 6.3500002"
   version="1.1"
   id="svg8">
  <defs
     id="defs2" />
  <metadata
     id="metadata5">
  </metadata>
  <g id="layer2">
    <path
       style="fill:#000000;stroke-width:0.06313454"
       d="m 5.8677104,22.713464 c -0.4672611,-0.04882 -0.8762957,-0.144705 -1.0890775,-0.255301 -0.060296,-0.03134 -0.1668353,-0.05698 -0.2367545,-0.05698 -0.069919,0 -0.1271257,-0.02841 -0.1271257,-0.06313 0,-0.03472 -0.056821,-0.06313 -0.1262691,-0.06313 -0.069448,0 -0.1262691,-0.02148 -0.1262691,-0.04772 0,-0.02625 -0.092334,-0.08859 -0.2051872,-0.138534 -0.112853,-0.04995 -0.2602629,-0.142114 -0.3275774,-0.204816 -0.067315,-0.0627 -0.144683,-0.114003 -0.1719298,-0.114003 -0.1243951,0 -1.1425573,-1.018766 -1.4041444,-1.404977 C 1.8872538,20.119595 1.5844761,19.543605 1.4478243,19.212888 1.4047806,19.108716 1.3444672,18.974152 1.3137945,18.913856 c -0.030673,-0.0603 -0.055769,-0.189564 -0.055769,-0.287262 0,-0.0977 -0.025534,-0.204624 -0.056741,-0.237612 C 1.147999,18.332657 1.06025,17.572268 1.0668628,17.22415 c 0.00894,-0.470486 0.082221,-1.112572 0.1329463,-1.164832 0.032019,-0.03299 0.058217,-0.153733 0.058217,-0.268322 0,-0.114589 0.028411,-0.208344 0.063135,-0.208344 0.034724,0 0.063135,-0.06935 0.063135,-0.15411 0,-0.08476 0.028411,-0.171669 0.063134,-0.19313 0.034724,-0.02146 0.063135,-0.09416 0.063135,-0.161562 0,-0.0674 0.02841,-0.122543 0.063134,-0.122543 0.034724,0 0.063135,-0.05682 0.063135,-0.126269 0,-0.06945 0.02841,-0.126269 0.063134,-0.126269 0.034724,0 0.063135,-0.03051 0.063135,-0.0678 0,-0.03729 0.1519211,-0.285883 0.3376023,-0.552427 0.2438495,-0.350047 1.931346,-2.075978 6.0766982,-6.2151056 3.1565034,-3.1517624 5.8101224,-5.7780905 5.8969324,-5.8362846 0.08681,-0.058194 0.172042,-0.12576 0.189404,-0.1501469 0.06269,-0.08805 1.111454,-0.6039764 1.38896,-0.6832791 0.156258,-0.044654 0.333438,-0.1068302 0.393734,-0.1381698 0.0603,-0.03134 0.217974,-0.0569812 0.350397,-0.0569812 0.132422,0 0.27102,-0.0302529 0.307996,-0.0672286 0.117924,-0.11792404 1.926803,0.001652 2.069875,0.1368297 0.03299,0.031167 0.125708,0.056668 0.206044,0.056668 0.08034,0 0.195399,0.024761 0.255695,0.055025 0.0603,0.030264 0.386632,0.1898273 0.725191,0.3545861 0.338559,0.1647589 0.615561,0.3246663 0.615561,0.3553498 0,0.030684 0.04205,0.055788 0.09344,0.055788 0.116229,0 0.924023,0.8163782 1.186944,1.1995562 0.107218,0.1562579 0.213298,0.2983106 0.235733,0.3156726 0.02244,0.017362 0.08097,0.1239016 0.130064,0.2367545 0.0491,0.112853 0.110748,0.2051873 0.136995,0.2051873 0.02625,0 0.04772,0.056821 0.04772,0.1262691 0,0.069448 0.02841,0.126269 0.06313,0.126269 0.03472,0 0.06313,0.056821 0.06313,0.1262691 0,0.069448 0.02841,0.1262691 0.06313,0.1262691 0.03472,0 0.06313,0.085232 0.06313,0.1894036 0,0.1041719 0.02841,0.1894036 0.06313,0.1894036 0.03472,0 0.06313,0.09776 0.06313,0.2172448 0,0.1194847 0.02841,0.2348035 0.06313,0.2562642 0.03472,0.021461 0.06313,0.2380841 0.06313,0.4813855 0,0.2433015 0.03104,0.5003698 0.06898,0.5712629 0.04989,0.093217 0.04989,0.1479919 0,0.19788 -0.0381,0.038096 -0.06898,0.2894773 -0.06898,0.5614327 0,0.2862097 -0.02644,0.4924494 -0.06313,0.4924494 -0.03472,0 -0.06313,0.09776 -0.06313,0.2172446 0,0.1194847 -0.02841,0.2348037 -0.06313,0.2562644 -0.03472,0.021461 -0.06313,0.1083691 -0.06313,0.1931298 0,0.084761 -0.02841,0.1541101 -0.06313,0.1541101 -0.03472,0 -0.06313,0.039931 -0.06313,0.088736 0,0.081735 -0.242887,0.5962242 -0.315773,0.6688788 -0.01742,0.017362 -0.07051,0.1070333 -0.117987,0.199269 -0.04748,0.092236 -0.203688,0.3045635 -0.347139,0.4718391 C 21.334144,10.302998 10.21683,21.40584 9.9390755,21.613046 9.800208,21.716643 9.6314904,21.851122 9.5641473,21.911889 c -0.067342,0.06077 -0.1597,0.110486 -0.2052384,0.110486 -0.045538,0 -0.082797,0.02841 -0.082797,0.06313 0,0.03472 -0.056821,0.06314 -0.1262691,0.06314 -0.069448,0 -0.126269,0.02841 -0.126269,0.06313 0,0.03472 -0.056821,0.06314 -0.1262691,0.06314 -0.069448,0 -0.1262691,0.02841 -0.1262691,0.06313 0,0.03472 -0.057207,0.06313 -0.1271258,0.06313 -0.069919,0 -0.1764585,0.02492 -0.2367545,0.05538 -0.2405028,0.121502 -0.5831497,0.198237 -1.1532981,0.258278 -0.6603177,0.06954 -0.7078107,0.06949 -1.3861467,-0.0014 z m 1.7832724,-1.164809 c 0.130537,-0.02492 0.252958,-0.07058 0.272048,-0.101467 0.019089,-0.03089 0.087167,-0.05616 0.1512848,-0.05616 0.1260286,0 0.6517454,-0.253938 0.6861973,-0.331456 0.011575,-0.02604 0.061293,-0.04735 0.1104854,-0.04735 0.049193,0 0.089441,-0.02841 0.089441,-0.06313 0,-0.03472 0.042616,-0.06313 0.094702,-0.06313 0.052086,0 0.094702,-0.02841 0.094702,-0.06313 0,-0.03472 0.030935,-0.06313 0.068743,-0.06313 0.072415,0 5.9290367,-5.82482 5.9290367,-5.896842 0,-0.02299 -1.193242,-1.234586 -2.65165,-2.692443 -1.458408,-1.457856 -2.6516502,-2.6789155 -2.6516502,-2.7134646 0,-0.1198603 5.2435862,-5.3053891 5.5867932,-5.5249362 0.187341,-0.1198403 0.534018,-0.3058727 0.770395,-0.4134052 0.236375,-0.1075325 0.479107,-0.2213428 0.539403,-0.2529116 0.0603,-0.031569 0.175358,-0.057398 0.255695,-0.057398 0.08034,0 0.173056,-0.025791 0.206044,-0.057314 0.147471,-0.1409226 1.452732,-0.1896245 2.080282,-0.077619 0.899621,0.1605641 0.866271,0.1589236 0.842629,0.04145 C 20.086158,2.9189902 19.235341,2.5274948 18.525321,2.3784622 17.770543,2.220035 16.601355,2.2879695 15.842103,2.5343678 15.524043,2.6375872 14.691613,3.0591103 14.545702,3.1908354 14.477376,3.2525178 14.32206,3.3771606 14.200554,3.4678193 13.978625,3.6334064 4.2083539,13.376915 3.4993019,14.139759 3.0974611,14.572085 2.982564,14.714446 2.8462361,14.948927 c -0.2632013,0.4527 -0.3255195,0.586476 -0.3255195,0.69878 0,0.06839 -0.028411,0.124349 -0.063134,0.124349 -0.034724,0 -0.063135,0.08523 -0.063135,0.189403 0,0.104172 -0.025887,0.189404 -0.057527,0.189404 -0.1689541,0 -0.1690025,1.998998 -5.27e-5,2.174985 0.031669,0.03299 0.05758,0.139527 0.05758,0.236754 0,0.09723 0.028411,0.176777 0.063135,0.176777 0.034724,0 0.063134,0.07103 0.063134,0.157836 0,0.08681 0.028411,0.157837 0.063135,0.157837 0.034724,0 0.063135,0.05682 0.063135,0.126269 0,0.06945 0.02841,0.126269 0.063134,0.126269 0.034724,0 0.063135,0.03039 0.063135,0.06754 0,0.211762 1.1742872,1.510821 1.3657092,1.510821 0.047512,0 0.086385,0.02295 0.086385,0.05099 0,0.06464 0.7773027,0.454085 0.9063224,0.454085 0.053008,0 0.1139367,0.02841 0.1353974,0.06313 0.021461,0.03472 0.1154715,0.06357 0.2089132,0.0641 0.093442,5.05e-4 0.2125098,0.02937 0.2645958,0.06408 0.1021671,0.06809 1.5070301,0.04331 1.9104049,-0.03369 z"
       id="path76"
       transform="scale(0.26458333)" />
    <path
       style="fill:#000000;stroke-width:0.06313454"
       d="m 18.879482,22.706706 c -0.434278,-0.0621 -1.122263,-0.361042 -1.425431,-0.619365 -0.451799,-0.384967 -0.799368,-0.78545 -0.921883,-1.06223 -0.04925,-0.111261 -0.111018,-0.202292 -0.137266,-0.202292 -0.02625,0 -0.04772,-0.05682 -0.04772,-0.12627 0,-0.06945 -0.0253,-0.126269 -0.05623,-0.126269 -0.08627,0 -0.143374,-0.399185 -0.175122,-1.224117 -0.01859,-0.483062 -0.005,-0.774483 0.0381,-0.817592 0.03684,-0.03684 0.06699,-0.130652 0.06699,-0.208467 0,-0.07782 0.02841,-0.159043 0.06313,-0.180503 0.03472,-0.02146 0.06314,-0.108369 0.06314,-0.19313 0,-0.08476 0.02841,-0.15411 0.06313,-0.15411 0.03472,0 0.06313,-0.03726 0.06313,-0.0828 0,-0.04554 0.05682,-0.143788 0.126269,-0.218331 0.06945,-0.07454 0.126269,-0.157499 0.126269,-0.184346 0,-0.09053 0.810773,-0.825352 1.006017,-0.911775 0.106446,-0.04712 0.193539,-0.107144 0.193539,-0.133392 0,-0.02625 0.05682,-0.04772 0.126269,-0.04772 0.06945,0 0.126269,-0.02841 0.126269,-0.06313 0,-0.03472 0.06935,-0.06314 0.15411,-0.06314 0.08476,0 0.171669,-0.02841 0.19313,-0.06313 0.02146,-0.03472 0.149308,-0.06314 0.284105,-0.06314 0.134798,0 0.262645,-0.02841 0.284106,-0.06313 0.02146,-0.03472 0.206129,-0.06313 0.410374,-0.06313 0.204246,0 0.388914,0.02841 0.410375,0.06313 0.02146,0.03472 0.149308,0.06313 0.284105,0.06313 0.134798,0 0.262645,0.02841 0.284106,0.06314 0.02146,0.03472 0.108369,0.06313 0.193129,0.06313 0.08476,0 0.154111,0.02841 0.154111,0.06314 0,0.03472 0.03695,0.06313 0.08212,0.06313 0.116149,0 0.421878,0.148488 0.422468,0.205187 2.72e-4,0.02604 0.03601,0.0477 0.07941,0.04812 0.0434,4.23e-4 0.263587,0.192771 0.489293,0.427437 0.510944,0.531228 0.631345,0.684485 0.631345,0.803636 0,0.05169 0.02841,0.09398 0.06313,0.09398 0.03472,0 0.06313,0.05682 0.06313,0.126269 0,0.06945 0.02841,0.126269 0.06313,0.126269 0.03472,0 0.06313,0.08523 0.06313,0.189404 0,0.104172 0.02841,0.189403 0.06313,0.189403 0.03472,0 0.06313,0.154582 0.06313,0.343514 0,0.188933 0.02841,0.361073 0.06314,0.382533 0.03472,0.02146 0.06313,0.106693 0.06313,0.189404 0,0.08271 -0.02841,0.167943 -0.06313,0.189404 -0.03472,0.02146 -0.06314,0.177718 -0.06314,0.34724 0,0.169521 -0.02841,0.325779 -0.06313,0.347239 -0.03472,0.02146 -0.06313,0.106693 -0.06313,0.189404 0,0.08271 -0.02841,0.167943 -0.06313,0.189404 -0.03472,0.02146 -0.06313,0.09416 -0.06313,0.161562 0,0.0674 -0.02841,0.122543 -0.06313,0.122543 -0.03472,0 -0.06313,0.03289 -0.06313,0.07309 0,0.09431 -0.488844,0.741235 -0.684238,0.905499 -0.08261,0.06945 -0.225247,0.190158 -0.316974,0.268245 -0.09173,0.07809 -0.20229,0.142011 -0.245695,0.142053 -0.0434,4.2e-5 -0.07892,0.02849 -0.07892,0.06321 0,0.03472 -0.05682,0.06313 -0.126269,0.06313 -0.06945,0 -0.126269,0.02221 -0.126269,0.04935 0,0.103162 -1.080323,0.337114 -1.483662,0.321298 -0.104172,-0.0041 -0.370957,-0.03339 -0.592857,-0.06512 z m 1.345308,-0.596384 c 0.08508,-0.03265 0.09987,-0.182211 0.09987,-1.010153 v -0.97183 h 0.970855 c 0.753323,0 0.987227,-0.01973 1.043924,-0.08804 0.0481,-0.05796 0.06692,-0.32219 0.05508,-0.773398 l -0.01799,-0.685355 -1.025937,-0.01735 -1.025936,-0.01735 -9.66e-4,-0.961237 c -5.31e-4,-0.528681 -0.02412,-0.997727 -0.05242,-1.042324 -0.03813,-0.06009 -0.238098,-0.07644 -0.772432,-0.06313 l -0.720981,0.01795 -0.01734,1.02438 -0.01734,1.024379 -1.02438,0.01734 -1.024379,0.01734 v 0.757614 0.757614 l 1.025936,0.01735 1.025936,0.01735 v 0.966498 c 0,0.531575 0.01894,0.98544 0.04209,1.008589 0.05261,0.05261 1.300584,0.05589 1.436408,0.0038 z"
       id="path78"
       transform="scale(0.26458333)" />
    <path
       style="fill:#000000;stroke-width:0.06313454"
       d="m 5.3302034,20.509245 -0.4419417,-0.113866 0.769672,-0.0073 c 0.4367459,-0.0041 0.78655,-0.03456 0.8086913,-0.07039 0.021461,-0.03472 0.1229597,-0.06313 0.2255536,-0.06313 0.1025938,0 0.2358672,-0.02583 0.296163,-0.0574 0.060296,-0.03157 0.3043343,-0.146004 0.5423079,-0.254299 0.2379735,-0.108296 0.5362842,-0.273244 0.6629126,-0.366553 0.1266284,-0.09331 1.249266,-1.187023 2.4947499,-2.430479 l 2.264517,-2.260828 0.181947,0.19039 c 0.10007,0.104714 0.181946,0.20232 0.181946,0.216903 0,0.05713 -4.3660833,4.392264 -4.5601361,4.527815 -0.1135867,0.07934 -0.2207265,0.161173 -0.2380885,0.181844 -0.083007,0.09883 -0.8201266,0.407668 -1.2224596,0.512188 -0.571539,0.148477 -1.3782424,0.146447 -1.9658344,-0.0049 z"
       id="path80"
       transform="scale(0.26458333)" />
  </g>
</svg>
