<?xml version="1.0" encoding="UTF-8" standalone="no"?>

<svg
   xmlns="http://www.w3.org/2000/svg"
   width="24"
   height="24"
   viewBox="0 0 6.3499999 6.3500002"
   version="1.1"
   id="svg8">
  <defs
     id="defs2" />
  <metadata
     id="metadata5">
  </metadata>
  <g
     id="layer6">
    <path
       style="fill:#000000;stroke-width:0.03156727"
       d="M 8.0686252,23.526278 C 7.5406339,23.444385 7.2122876,23.360658 6.7901509,23.200271 5.5026719,22.711105 4.5366277,21.825342 3.9391703,20.586215 3.7745238,20.244737 3.6837233,20.005063 3.5514875,19.562896 3.4002266,19.057114 3.4080226,19.312549 3.3814391,13.991274 3.3539336,8.4854314 3.3747803,6.2346973 3.4576706,5.7608858 3.5079123,5.4736979 3.7203876,4.7813504 3.8526834,4.4737425 4.2372731,3.5795135 4.8237404,2.7972675 5.5592807,2.1974369 5.7732178,2.0229719 6.2262915,1.7116066 6.2662219,1.7116066 c 0.00884,0 0.084175,-0.03962 0.1674081,-0.088045 C 6.6624183,1.4904548 7.1514092,1.2915971 7.5004144,1.1897333 7.6045864,1.1593287 7.7527208,1.1151566 7.8296023,1.0915731 7.941334,1.0572992 8.3856379,1.048694 10.043547,1.048694 h 2.074161 L 12.36601,0.92530719 c 0.89868,-0.44657517 1.214021,-0.5085777 2.576048,-0.5065044 1.208107,0.001839 3.007127,0.075716 3.25966,0.13385828 0.423564,0.0975201 0.933591,0.29860879 1.293754,0.51008883 0.598986,0.351712 1.250536,0.9835251 1.579856,1.5319997 0.476744,0.7940034 0.611564,1.3338549 0.613588,2.4569407 0.0013,0.7376051 -0.05892,1.1050027 -0.267596,1.6317609 -0.331491,0.8367785 -0.99791,1.5957449 -1.846426,2.1028412 -0.39007,0.2331164 -0.967731,0.4602239 -1.357392,0.5336592 -0.206183,0.038857 -1.242531,0.092701 -1.799626,0.093501 l -0.394882,5.682e-4 -0.204896,0.3328219 c -0.112693,0.1830519 -0.226204,0.3669383 -0.252247,0.4086343 -0.02604,0.0417 -0.134125,0.215687 -0.240183,0.386645 l -0.192832,0.310831 -0.02183,4.007732 c -0.01815,3.331631 -0.02941,4.031697 -0.06671,4.149785 -0.02468,0.07813 -0.08835,0.282925 -0.141484,0.455101 -0.05313,0.172177 -0.11918,0.363948 -0.14677,0.426159 -0.353773,0.797685 -0.68004,1.278932 -1.254694,1.850688 -0.402414,0.400384 -0.508357,0.487901 -0.94039,0.776831 -0.31553,0.211017 -0.897369,0.516792 -1.16198,0.610656 -0.642007,0.227735 -0.96023,0.308506 -1.5625798,0.396608 -0.5191784,0.07594 -1.2773095,0.07584 -1.767767,-2.21e-4 z m 1.281846,-0.982205 c 1.3874088,-0.109925 2.5496508,-0.620029 3.4237398,-1.502668 0.194835,-0.196741 0.560989,-0.657447 0.699354,-0.879948 0.07337,-0.11798 0.331602,-0.630491 0.357261,-0.709046 0.01418,-0.0434 0.06176,-0.17532 0.105738,-0.293144 0.114017,-0.305465 0.138542,-0.890233 0.1628,-3.881727 l 0.02016,-2.486023 -4.8721344,0.008 -4.8721347,0.008 0.00493,2.699001 c 0.00527,2.88274 0.020286,3.244573 0.1559013,3.756018 0.093956,0.354338 0.266593,0.798637 0.3948167,1.016105 0.050314,0.08533 0.09148,0.160622 0.09148,0.167312 0,0.0067 0.05844,0.100145 0.129867,0.20768 0.290362,0.437149 0.7542727,0.889553 1.2225134,1.192192 0.2238462,0.144679 0.7042738,0.384521 0.770233,0.384521 0.023595,0 0.056396,0.01263 0.07289,0.02807 0.031382,0.02938 0.2767531,0.104999 0.5981998,0.184365 0.1041719,0.02572 0.3811747,0.06485 0.6155617,0.08696 0.2343869,0.02211 0.4418808,0.04191 0.461097,0.04402 0.019217,0.0021 0.225193,-0.01125 0.4577254,-0.02967 z M 14.750671,9.5323971 c 0.04622,-0.073789 0.159754,-0.2552498 0.252308,-0.4032472 0.461236,-0.7375298 0.369533,-0.6979899 1.697995,-0.7321274 1.111674,-0.028567 1.300545,-0.05216 1.769066,-0.2209809 1.142611,-0.4117158 1.96011,-1.3303378 2.179553,-2.4491625 0.05126,-0.2613574 0.0204,-1.4312423 -0.0443,-1.6792947 C 20.425404,3.3579008 19.92881,2.6531136 19.272873,2.1565567 19.045216,1.9842155 18.523549,1.7126157 18.264852,1.6317418 17.924713,1.5254073 17.531254,1.4891711 16.370816,1.4573078 c -1.433057,-0.039349 -2.401262,-0.015981 -2.714785,0.065521 -0.780642,0.2029339 -1.277462,0.5186123 -1.862056,1.1831465 -0.2215,0.2517899 -0.551222,0.9144235 -0.616407,1.2387813 -0.05153,0.2564269 -0.07281,1.2588808 -0.03569,1.6811909 0.03922,0.4461102 0.105755,0.6761734 0.310019,1.0719723 0.316965,0.6141765 0.849402,1.1436451 1.462299,1.4541458 0.181087,0.091741 0.594925,0.2557852 0.773398,0.3065728 0.168095,0.047835 0.328019,0.2470072 0.741768,0.9238139 0.115588,0.1890775 0.188593,0.2841054 0.218264,0.2841054 0.01046,0 0.05682,-0.060372 0.10304,-0.1341609 z M 5.6637741,8.9566578 C 5.7256253,8.9308146 5.8139297,8.8602447 5.8600059,8.7998357 5.9556186,8.6744811 6.0053208,8.3861786 6.0616002,7.6304692 6.2020375,5.7446994 7.0821825,4.4542261 8.4158651,4.1786337 8.6737836,4.1253371 8.8045469,4.055195 8.905314,3.91609 9.0802002,3.6746664 9.0076213,3.3164287 8.749171,3.1453944 8.6405994,3.0735451 8.5948345,3.0641252 8.3630957,3.0659274 8.052405,3.0683439 7.8187071,3.1409436 7.2917705,3.398742 7.0715298,3.5064926 7.0409869,3.5256235 6.7624951,3.7302592 6.2242574,4.1257554 5.7996007,4.6568728 5.4732427,5.3427237 5.1798121,5.959377 4.9897365,6.7358908 4.8977927,7.6936038 4.8361453,8.3357404 4.8678831,8.6436289 5.0135711,8.816769 5.1620809,8.9932632 5.435419,9.0520708 5.6637741,8.9566578 Z"
       id="path209"
       transform="scale(0.26458333)" />
    <path
       style="fill:#000000;stroke-width:0.03156727"
       d="M 15.376162,6.7379445 C 15.243418,6.6051998 15.25044,6.6464102 15.194747,5.6732987 L 15.17126,5.2629242 14.555699,5.2456969 C 13.91432,5.2277471 13.821918,5.208667 13.699298,5.0688606 13.55881,4.9086815 13.547925,4.6384135 13.675432,4.4763142 c 0.127047,-0.1615136 0.213898,-0.1819894 0.86867,-0.2047936 0.334707,-0.011657 0.614362,-0.027747 0.621453,-0.035755 0.0071,-0.00801 0.02913,-0.3037423 0.04898,-0.6571865 0.04097,-0.7297454 0.05832,-0.7847493 0.281496,-0.8927892 0.159191,-0.077063 0.317843,-0.064952 0.491521,0.03752 0.184971,0.109136 0.219073,0.2416003 0.239336,0.9296841 l 0.01766,0.5997781 0.631346,0.016293 c 0.42872,0.011064 0.654458,0.02932 0.703362,0.056884 0.03961,0.022325 0.114187,0.098805 0.165728,0.1699552 0.125728,0.1735617 0.125224,0.3194562 -0.0017,0.4946813 -0.195615,0.2700395 -0.144197,0.2542463 -0.858834,0.2637922 l -0.639894,0.00855 -0.0084,0.647129 -0.0084,0.647129 -0.109102,0.1002172 c -0.193808,0.1780249 -0.241205,0.1996718 -0.437187,0.1996718 -0.17316,0 -0.194373,-0.00828 -0.305221,-0.1191267 z"
       id="path211"
       transform="scale(0.26458333)" />
    <path
       style="fill:#000000;stroke-width:0.03156727"
       d="m 11.982966,15.659068 c -0.347948,-0.192444 -0.405274,-0.66857 -0.106165,-0.881763 0.15075,-0.107448 0.440388,-0.107448 0.591138,0 0.198472,0.141463 0.257778,0.465637 0.122442,0.669286 -0.127398,0.191707 -0.444446,0.302611 -0.607415,0.212477 z"
       id="path213"
       transform="scale(0.26458333)" />
    <path
       style="fill:#000000;stroke-width:0.03156727"
       d="M 9.8048249,15.64334 C 9.6519671,15.562574 9.6052079,15.507997 9.5522381,15.34852 9.3653552,14.785868 10.07474,14.434582 10.424055,14.916798 c 0.175971,0.242921 0.09848,0.550363 -0.178222,0.707082 -0.146253,0.08284 -0.307591,0.08995 -0.4410081,0.01946 z"
       id="path215"
       transform="scale(0.26458333)" />
    <path
       style="fill:#000000;stroke-width:0.03156727"
       d="m 7.6582507,15.646966 c -0.1577409,-0.07912 -0.2767859,-0.278262 -0.2793626,-0.46732 -0.00386,-0.283527 0.1589885,-0.465333 0.4349984,-0.485624 0.3137267,-0.02306 0.5230605,0.174754 0.5230605,0.494284 0,0.152871 -0.013929,0.19444 -0.1002326,0.299142 -0.1621528,0.196719 -0.3829254,0.2576 -0.5784637,0.159518 z"
       id="path217"
       transform="scale(0.26458333)" />
    <path
       style="fill:#000000;stroke-width:0.03156727"
       d="m 5.4386272,15.601827 c -0.07143,-0.05174 -0.1516904,-0.13627 -0.1783563,-0.187836 -0.1034439,-0.200039 -0.030691,-0.512038 0.150683,-0.646196 0.066743,-0.04937 0.1331202,-0.06497 0.2683217,-0.06305 0.3154851,0.0045 0.4821076,0.136939 0.5039806,0.4007 0.018308,0.22077 -0.047836,0.371871 -0.216162,0.493806 -0.1811906,0.131254 -0.349702,0.132076 -0.528467,0.0026 z"
       id="path219"
       transform="scale(0.26458333)" />
    <path
       style="fill:#000000;stroke-width:0.03156727"
       d="M 6.6165309,17.80593 C 6.211958,17.658711 6.174398,17.093208 6.5571301,16.91159 c 0.1408256,-0.06683 0.408587,-0.05314 0.5311225,0.02715 0.045621,0.02989 0.113758,0.117768 0.1514165,0.195281 0.062286,0.128202 0.064873,0.154444 0.02865,0.290535 -0.054338,0.204147 -0.1154657,0.288417 -0.2499772,0.34462 -0.156683,0.06547 -0.2895172,0.07762 -0.4018107,0.03675 z"
       id="path221"
       transform="scale(0.26458333)" />
    <path
       style="fill:#000000;stroke-width:0.03156727"
       d="m 8.7158841,17.773424 c -0.1593081,-0.08194 -0.283306,-0.266052 -0.2830228,-0.420236 2.21e-4,-0.120362 0.095088,-0.328496 0.187047,-0.410375 0.057308,-0.05103 0.1155874,-0.06313 0.3038831,-0.06313 0.2308764,0 0.2341491,0.0012 0.363136,0.130159 0.1027718,0.102772 0.1334594,0.159433 0.1458401,0.269274 0.021587,0.191519 -0.050826,0.350012 -0.2071948,0.453491 -0.1790937,0.118519 -0.3344355,0.13096 -0.5096886,0.04082 z"
       id="path223"
       transform="scale(0.26458333)" />
    <path
       style="fill:#000000;stroke-width:0.03156727"
       d="m 10.870992,17.776404 c -0.182991,-0.09058 -0.261202,-0.226618 -0.261202,-0.454332 0,-0.167952 0.0089,-0.190421 0.119522,-0.301021 0.218812,-0.218812 0.497871,-0.226819 0.721086,-0.02069 0.263096,0.242959 0.131836,0.717393 -0.223215,0.806796 -0.186882,0.04706 -0.20155,0.04579 -0.356191,-0.03075 z"
       id="path225"
       transform="scale(0.26458333)" />
    <path
       style="fill:#000000;stroke-width:0.03156727"
       d="m 9.8722924,19.975076 c -0.379667,-0.137509 -0.4779762,-0.588094 -0.1879836,-0.861592 0.095889,-0.09043 0.1303097,-0.103015 0.2818576,-0.103015 0.3463496,0 0.5701326,0.210088 0.5414746,0.508338 -0.03186,0.331591 -0.349591,0.559765 -0.6353486,0.456269 z"
       id="path227"
       transform="scale(0.26458333)" />
    <path
       style="fill:#000000;stroke-width:0.03156727"
       d="m 7.6740344,19.966761 c -0.073617,-0.02691 -0.1908607,-0.142598 -0.2397539,-0.236569 -0.024393,-0.04688 -0.044352,-0.171179 -0.044352,-0.276214 0,-0.179451 0.00733,-0.198298 0.1214666,-0.312437 0.3221132,-0.322114 0.8345707,-0.101943 0.8345707,0.358562 0,0.138582 -0.01672,0.1932 -0.087589,0.286113 -0.048174,0.06316 -0.1349786,0.134636 -0.1928993,0.158837 -0.1048217,0.0438 -0.3012217,0.05469 -0.3914434,0.02171 z"
       id="path229"
       transform="scale(0.26458333)" />
  </g>
</svg>
