<svg width="24px" height="24px" viewBox="0 0 200 280" version="1.1">
    <defs id="defs3721"/>
    <g id="layer3" style="display:inline">
        <path style="stroke-width:2.85714293" id="path3741" transform="scale(0.26458333)"
              d="M 641.14286,868.83037 C 626.22891,862.38337 484.8388,720.94157 477.7738,705.40157 l -5.57426,-12.26097 -9.09977,5.55023 c -47.89077,29.20997 -89.58686,39.69386 -145.6831,36.62988 -36.5501,-1.99637 -57.40744,-6.94717 -87.24603,-20.70917 C 175.69045,689.48451 127.01363,638.25909 106.37085,584.32986 93.443684,550.55766 91.474777,538.8114 91.364783,494.8054 91.238385,444.23611 96.315628,421.91839 116.99526,382.14314 180.30462,260.37376 332.19633,215.93303 452.35729,284.02236 c 24.44528,13.85193 64.17425,48.25666 71.47308,61.89468 2.1958,4.10288 6.02512,7.43018 8.50957,7.39399 2.48446,-0.0362 18.0172,-13.52815 34.5172,-29.98212 32.19829,-32.10847 41.03357,-36.76094 56.0414,-29.51018 4.3758,2.1141 10.37746,8.00223 13.337,13.08475 10.57229,18.15601 9.13363,20.03613 -89.02525,116.34502 -49.69423,48.75763 -109.34589,107.30424 -132.55926,130.10359 -47.49215,46.64505 -55.5068,51.23142 -72.2225,41.3292 -5.19015,-3.0746 -39.00878,-34.235 -75.15253,-69.24535 -70.67501,-68.45879 -73.3008,-72.11179 -64.76448,-90.10074 7.9472,-16.74748 27.8913,-21.26479 43.3359,-9.81551 4.76953,3.53571 31.00363,27.96428 58.29799,54.28571 27.29438,26.32143 50.45732,47.85714 51.47321,47.85714 1.01589,0 31.14775,-28.61046 66.95969,-63.57881 57.36086,-56.00965 64.8642,-64.36152 63.02598,-70.1533 -3.07055,-9.67443 -33.98869,-41.61851 -51.0686,-52.76318 -34.491,-22.50545 -70.78556,-32.16575 -112.41134,-29.91983 -47.25925,2.54987 -85.61607,19.01031 -118.31117,50.77204 -57.86072,56.20894 -72.32815,140.08522 -36.8985,213.92257 16.31043,33.99186 49.09906,66.78386 83.0608,83.0694 56.13657,26.91891 111.6766,26.25891 168.31023,-2.00014 28.14289,-14.04272 60.21315,-45.60658 74.86329,-73.68112 11.5672,-22.16663 22.27957,-57.1746 22.27957,-72.80949 0,-8.96372 3.04346,-13.14465 26.76297,-36.76553 30.13772,-30.01241 28.206,-30.33617 31.83709,5.33596 4.28834,42.12924 -12.80746,110.64726 -35.59066,142.64335 -3.2266,4.53131 -5.86654,9.32823 -5.86654,10.65977 0,1.33154 5.46428,5.32174 12.14286,8.86708 14.51108,7.70329 153.33842,146.26815 160.48614,160.18269 21.00154,40.88406 -21.62729,85.72811 -64.05757,67.38637 z"/>
        <path style="stroke-width:2.85714293" id="path3743" transform="scale(0.26458333)"
              d="M 641.14286,868.83037 C 626.1744,862.3598 484.83657,720.93717 477.7434,705.33283 c -5.30066,-11.66092 -5.94163,-12.11274 -11.81689,-8.32986 -19.77511,12.73254 -34.85022,19.87457 -59.06937,27.98486 -35.4496,11.87103 -85.21968,14.75408 -122.94722,7.12197 C 184.36126,711.9716 107.81717,632.13346 92.149067,532.09655 87.840345,504.58645 90.815887,454.24631 98.315499,427.77301 121.5638,345.70753 188.66471,280.63845 272.57143,258.79358 c 33.36183,-8.68566 85.76607,-8.66945 118.57143,0.0367 47.39443,12.57788 87.14363,36.70431 120.99091,73.43741 l 20.17857,21.899 16.55812,-14.45454 c 9.10697,-7.94999 23.57811,-21.6201 32.15811,-30.37801 22.98969,-23.46641 42.45869,-24.32359 55.20697,-2.43064 11.62255,19.95966 19.74817,10.96966 -232.48623,257.21726 -36.99429,36.11626 -46.10572,40.552 -62.27208,30.3162 -4.65934,-2.95008 -38.04207,-33.98308 -74.18383,-68.96218 -70.72047,-68.44544 -73.34409,-72.09603 -64.78188,-90.13956 7.52536,-15.85852 27.04115,-21.10225 41.77745,-11.22526 4.0875,2.73965 30.2154,26.83832 58.06199,53.5526 27.8466,26.71429 51.72916,48.57143 53.07237,48.57143 3.25726,0 122.14281,-114.81714 127.75616,-123.38415 4.1072,-6.26839 3.86608,-7.46537 -3.70403,-18.38905 -21.68306,-31.28865 -68.3416,-61.28982 -108.3326,-69.65722 -84.24975,-17.62776 -166.87884,22.76404 -204.57282,100.00185 -20.56849,42.1464 -24.31163,87.88353 -10.80513,132.02709 9.67176,31.6104 21.98443,51.78994 46.9265,76.90891 27.55678,27.75226 57.00136,43.57097 95.41151,51.25857 87.95454,17.60366 177.41662,-34.51248 207.43977,-120.84403 3.76888,-10.8374 7.68548,-27.33902 8.70354,-36.6703 1.8278,-16.75303 2.17694,-17.29676 27.8196,-43.32501 16.67014,-16.9208 26.70514,-25.16726 28.02566,-23.03063 1.1314,1.83063 2.8958,13.69221 3.92091,26.35905 3.57009,44.11382 -8.48031,96.44852 -31.81606,138.17672 -5.58023,9.97837 -9.7072,18.45946 -9.17108,18.84689 0.53611,0.3874 6.76045,4.05337 13.83188,8.1466 15.59689,9.02808 151.69689,145.43125 158.43186,158.78474 20.73089,41.10346 -21.73866,85.71826 -64.14614,67.38637 z"/>
    </g>
</svg>
